<svg width="82" height="75" viewBox="0 0 82 75" fill="none" xmlns="http://www.w3.org/2000/svg">
<path d="M49.7172 19.6053C50.0275 19.9157 50.4342 20.0708 50.8408 20.0708C51.2474 20.0708 51.6542 19.9157 51.9644 19.6053C52.5849 18.9849 52.5849 17.9787 51.9644 17.3581L51.9429 17.3366C51.3224 16.7161 50.3163 16.7161 49.6956 17.3366C49.0751 17.9571 49.0751 18.9632 49.6956 19.5839L49.7172 19.6053Z" fill="#2D3E9F"/>
<path d="M75.3521 34.6398L80.8905 29.1014C81.345 28.647 81.4808 27.9634 81.2349 27.3698C80.9889 26.776 80.4095 26.3889 79.7668 26.3889H68.2862C66.7856 20.2459 63.6361 14.6484 59.1337 10.1458C52.5914 3.60318 43.8925 0 34.6398 0C25.3872 0 16.6883 3.60318 10.1458 10.1458C3.60318 16.6885 0 25.3872 0 34.6398C0 43.8925 3.60318 52.5914 10.1458 59.1338C12.0914 61.0794 14.2287 62.7628 16.5135 64.1709L11.7264 72.6283C11.448 73.1202 11.4518 73.7231 11.7365 74.2112C12.0211 74.6997 12.5438 75 13.1091 75H21.2924C21.8649 75 22.3932 74.6921 22.6753 74.1938L26.0601 68.2136C28.8305 68.9164 31.7072 69.2797 34.6398 69.2797C37.5725 69.2797 40.4492 68.9164 43.2195 68.2136L46.6044 74.1938C46.8864 74.6921 47.4148 75 47.9873 75H56.1706C56.7359 75 57.2585 74.6997 57.5433 74.2114C57.828 73.7231 57.8318 73.1202 57.5534 72.6284L52.7663 64.1711C55.0511 62.7628 57.1885 61.0796 59.134 59.134C63.6346 54.6334 66.7858 49.0335 68.2862 42.8909H79.767C80.4095 42.8909 80.989 42.5037 81.235 41.9101C81.481 41.3164 81.345 40.6328 80.8907 40.1784L75.3521 34.6398ZM72.4467 33.0508H61.3573L64.8413 29.5668H75.9308L72.4467 33.0508ZM20.3658 71.822H15.8344L19.293 65.7119C20.4799 66.2995 21.6985 66.8193 22.9452 67.2651L20.3658 71.822ZM53.4453 71.822H48.9138L46.3344 67.2651C47.5811 66.8193 48.7997 66.2995 49.9867 65.7119L53.4453 71.822ZM56.8867 56.8867C54.7877 58.9858 52.4433 60.7498 49.9197 62.1561C49.8885 62.1712 49.857 62.1855 49.8264 62.2028C49.8072 62.2138 49.7897 62.2263 49.7711 62.2379C47.8352 63.3029 45.7953 64.1579 43.6786 64.7894C43.5953 64.8059 43.513 64.8304 43.4318 64.8609C40.6108 65.6773 37.6581 66.1017 34.6398 66.1017C31.6216 66.1017 28.6689 65.6773 25.8478 64.861C25.7665 64.8305 25.6842 64.806 25.6007 64.7895C23.4842 64.1581 21.4443 63.303 19.5086 62.2381C19.49 62.2265 19.4725 62.2139 19.4533 62.203C19.4226 62.1856 19.3913 62.1713 19.3602 62.1563C16.8365 60.75 14.4922 58.9859 12.3931 56.8867C6.45064 50.9444 3.17797 43.0436 3.17797 34.6398C3.17797 26.236 6.45064 18.3353 12.393 12.393C18.3353 6.45064 26.236 3.17797 34.6398 3.17797C43.0436 3.17797 50.9444 6.45064 56.8867 12.393C60.7913 16.2976 63.5762 21.1076 65.0061 26.3889H64.1833C63.7619 26.3889 63.3577 26.5564 63.0597 26.8543L58.8424 31.0716C58.4169 28.1827 57.4829 25.3737 56.0725 22.8191C55.6484 22.0508 54.6817 21.7721 53.9134 22.196C53.1451 22.6201 52.8663 23.5869 53.2904 24.3551C54.7988 27.0872 55.6414 30.0577 55.857 33.051H48.8509C48.4972 29.8324 47.0749 26.8506 44.7521 24.5279C42.051 21.8266 38.4597 20.339 34.6398 20.339C30.8199 20.339 27.2287 21.8266 24.5277 24.5275C21.8266 27.2288 20.339 30.8199 20.339 34.6398C20.339 38.4597 21.8266 42.051 24.5275 44.752C27.2287 47.4531 30.8199 48.9407 34.6398 48.9407C38.4597 48.9407 42.051 47.4531 44.752 44.7521C47.0747 42.4293 48.497 39.4476 48.8507 36.2288H55.8501C55.4711 41.196 53.3751 46.0163 49.6958 49.6958C45.6742 53.7175 40.3271 55.9322 34.6398 55.9322C28.9525 55.9322 23.6055 53.7175 19.5839 49.6958C15.5622 45.6742 13.3475 40.3273 13.3475 34.6398C13.3475 28.9524 15.5622 23.6055 19.5839 19.5839C26.2548 12.913 36.6753 11.435 44.9247 15.9895C45.6928 16.4134 46.6595 16.1347 47.0838 15.3664C47.5079 14.5981 47.229 13.6316 46.4608 13.2073C41.9091 10.6943 36.5496 9.6928 31.37 10.3878C26.0175 11.1057 21.1648 13.5086 17.3368 17.3368C12.7149 21.9586 10.1695 28.1035 10.1695 34.6398C10.1695 41.1761 12.7149 47.3212 17.3366 51.9429C21.9585 56.5648 28.1035 59.1102 34.6398 59.1102C41.1761 59.1102 47.3212 56.5648 51.9429 51.9431C55.6985 48.1877 58.081 43.446 58.848 38.2139L63.0596 42.4255C63.3575 42.7235 63.7618 42.8909 64.1832 42.8909H65.0056C63.5757 48.1719 60.7897 52.9837 56.8867 56.8867ZM39.8295 31.6436C39.3907 30.8835 38.4189 30.6232 37.6589 31.0621L33.8453 33.2638C33.3537 33.5476 33.0508 34.0721 33.0508 34.6398C33.0508 35.2076 33.3537 35.7321 33.8453 36.0159L37.6589 38.2176C37.9092 38.362 38.1823 38.4307 38.452 38.4307C39.0011 38.4307 39.5352 38.1458 39.8295 37.636C40.0873 37.1895 40.1021 36.6704 39.9176 36.2288H45.6494C45.3127 38.5969 44.2263 40.7835 42.5048 42.5048C40.404 44.6058 37.6109 45.7627 34.6398 45.7627C31.6688 45.7627 28.8756 44.6058 26.7747 42.5048C24.6739 40.404 23.5169 37.6109 23.5169 34.6398C23.5169 31.6688 24.6739 28.8756 26.7748 26.7747C28.8756 24.6739 31.6688 23.5169 34.6398 23.5169C37.6109 23.5169 40.404 24.6739 42.505 26.7748C44.2263 28.4962 45.3129 30.6828 45.6496 33.0508H39.9178C40.1021 32.6091 40.0873 32.0901 39.8295 31.6436ZM64.8413 39.7128L61.3573 36.2288H72.4467L75.9308 39.7128H64.8413Z" fill="#2D3E9F"/>
</svg>
