<svg width="109" height="75" viewBox="0 0 109 75" fill="none" xmlns="http://www.w3.org/2000/svg">
<path d="M105.942 39.3819C105.2 37.8781 89.3211 11.7041 88.9188 11.0505C85.9547 6.2402 80.8169 3.36852 75.175 3.36852C74.3701 3.36852 73.5796 3.42954 72.8059 3.54395C72.8052 3.54246 72.8031 3.53929 72.8025 3.53844C71.4353 1.32292 69.0689 0 66.4727 0C62.3734 0 59.0382 3.33504 59.0382 7.43451V20.4247H49.4392V7.43451C49.4392 3.33526 46.1041 0 42.0047 0C39.4131 0 37.0512 1.31804 35.6719 3.54395C34.8983 3.42954 34.1074 3.36852 33.3023 3.36852C27.6604 3.36852 22.5226 6.24041 19.5583 11.0509C19.5174 11.1172 19.3931 11.3194 16.4053 16.3282C15.8917 17.1892 16.1735 18.3036 17.0343 18.8172C17.8954 19.3306 19.0098 19.0494 19.5234 18.1882C21.9819 14.0669 22.5807 13.0677 22.6499 12.9552C24.9479 9.22587 28.9302 6.99933 33.3025 6.99933C40.1985 6.99933 45.8084 12.6094 45.8084 19.5052V37.3963C41.4587 30.3027 33.6328 25.5604 24.7197 25.5604C20.6944 25.5604 16.8911 26.5282 13.5294 28.242C14.3927 26.7935 15.3048 25.2631 16.2201 23.7284C16.7335 22.8671 16.4517 21.7527 15.5904 21.2393C14.7292 20.726 13.615 21.0077 13.1014 21.869C9.24409 28.3382 3.17296 38.0452 2.40599 39.6478C0.864429 42.8697 0 46.4758 0 50.2803C0 63.9107 11.0893 75 24.7197 75C38.3501 75 49.4392 63.9107 49.4392 50.2803V45.4567H59.0382V50.2803C59.0382 63.9107 70.1274 75 83.7576 75C97.3881 75 108.477 63.9107 108.477 50.2803C108.478 46.3709 107.565 42.6712 105.942 39.3819ZM45.8084 9.32121C44.1312 7.26544 41.9587 5.63023 39.4741 4.59779C40.1614 3.98125 41.0525 3.63081 42.0049 3.63081C44.1022 3.63081 45.8084 5.337 45.8084 7.4343V9.32121ZM24.7197 71.3688C13.0912 71.3688 3.63081 61.9086 3.63081 50.2801C3.63081 38.6516 13.0912 29.1912 24.7197 29.1912C36.3482 29.1912 45.8084 38.6516 45.8084 50.2801C45.8084 61.9086 36.348 71.3688 24.7197 71.3688ZM49.439 34.8549V24.0553H59.0379V34.8549H49.439ZM59.0382 41.8258H49.4392V38.4859H59.0382V41.8258ZM62.669 7.43451C62.669 5.33721 64.3752 3.63102 66.4725 3.63102C67.4278 3.63102 68.3219 3.98379 69.0056 4.59715C66.5201 5.62959 64.3466 7.26523 62.669 9.32142V7.43451ZM62.669 19.5062V19.5052C62.669 12.6092 68.2791 6.99933 75.1748 6.99933C79.5474 6.99933 83.5295 9.22608 85.8274 12.9552C86.0452 13.3088 90.5826 20.9181 94.948 28.242C91.586 26.528 87.7827 25.5602 83.7574 25.5602C74.8443 25.5602 67.0184 30.3027 62.6688 37.3961V19.5062H62.669ZM83.7578 71.3688C72.1294 71.3688 62.6692 61.9084 62.6692 50.2799C62.6692 38.6514 72.1296 29.191 83.7578 29.191C95.3863 29.191 104.847 38.6514 104.847 50.2799C104.847 61.9084 95.3861 71.3688 83.7578 71.3688Z" fill="#2D3E9F"/>
<path d="M99.6737 44.5594C99.3343 43.6162 98.2949 43.1261 97.3512 43.4653C96.408 43.8045 95.9179 44.8444 96.2571 45.7878C96.7736 47.2249 97.0357 48.7364 97.0357 50.2801C97.0357 57.6017 91.0794 63.5582 83.7576 63.5582C76.4361 63.5582 70.4795 57.6017 70.4795 50.2801C70.4795 42.9585 76.4361 37.002 83.7576 37.002C87.4321 37.002 90.9758 38.5457 93.4806 41.2371C94.1636 41.971 95.3122 42.0123 96.0465 41.3292C96.7804 40.6462 96.8217 39.4976 96.1387 38.7633C92.9498 35.3365 88.437 33.371 83.7576 33.371C74.4339 33.371 66.8487 40.9561 66.8487 50.2799C66.8487 59.6036 74.4339 67.1888 83.7576 67.1888C93.0814 67.1888 100.667 59.6036 100.667 50.2799C100.667 48.3167 100.333 46.3919 99.6737 44.5594Z" fill="#2D3E9F"/>
<path d="M24.7197 33.3714C15.3959 33.3714 7.81079 40.9565 7.81079 50.2803C7.81079 59.6041 15.3959 67.1892 24.7197 67.1892C34.0434 67.1892 41.6286 59.6041 41.6286 50.2803C41.6286 40.9565 34.0432 33.3714 24.7197 33.3714ZM24.7197 63.5582C17.3981 63.5582 11.4416 57.6019 11.4416 50.2801C11.4416 42.9585 17.3979 37.002 24.7197 37.002C32.0415 37.002 37.9978 42.9583 37.9978 50.2801C37.9978 57.6019 32.0411 63.5582 24.7197 63.5582Z" fill="#2D3E9F"/>
</svg>
